<svg xmlns="http://www.w3.org/2000/svg" xmlns:xlink="http://www.w3.org/1999/xlink" xml:space="preserve" version="1.1" style="shape-rendering:geometricPrecision;text-rendering:geometricPrecision;image-rendering:optimizeQuality;" viewBox="0 0 27777 34721.25" x="0px" y="0px" fill-rule="evenodd" clip-rule="evenodd"><defs><style type="text/css">
   
    .fil0 {fill:black;fill-rule:nonzero}
   
  </style></defs><g><path class="fil0" d="M13576 12954c-1711,-240 -3543,-1614 -3637,-3406 -77,-1512 542,-2326 1520,-3360 831,-877 1721,-1818 1714,-3927 0,-134 138,-255 249,-250 990,0 2538,1049 3721,2585 951,1235 1681,2792 1713,4378l0 0c83,1051 -250,2045 -1030,2787 -782,744 -1905,1132 -3201,1214l-13 1c691,965 1637,1770 2728,2347 1287,681 2734,1028 4220,978 292,-10 443,-15 577,137 168,191 117,687 117,958 0,4556 -3674,8369 -8369,8369 -4622,0 -8369,-3747 -8369,-8369 0,-989 100,-1213 586,-1213 393,0 806,123 1251,123 2612,0 4782,-1274 6223,-3352zm7757 6988c-177,13 -354,19 -522,19 -1899,0 -3318,-310 -4449,-870 -1035,-513 -1821,-1230 -2506,-2106 -685,876 -1472,1593 -2506,2106 -1131,560 -2550,870 -4449,870 -148,0 -306,-5 -463,-15 1059,3094 3993,5319 7447,5319 3410,0 6375,-2183 7448,-5323zm-15051 -508c206,18 403,27 619,27 1818,0 3166,-291 4228,-817 1054,-522 1835,-1280 2523,-2215 98,-137 303,-144 405,-4 689,937 1470,1696 2526,2219 1062,526 2409,817 4228,817 235,0 451,-10 678,-33 172,-648 265,-1329 265,-2032l8 -574c-2395,-50 -3784,-597 -4655,-1057 -1223,-647 -2276,-1566 -3022,-2673 -1532,2299 -3899,3714 -6732,3714 -445,0 -866,-123 -1251,-123 -72,0 -86,132 -86,713 0,705 93,1388 266,2038zm6155 -7346c-697,-904 -299,-1881 429,-2650 390,-413 809,-855 806,-1840 0,-138 111,-249 249,-249l0 -1c522,0 1323,534 1927,1318 661,859 1274,2400 551,3422 413,-171 774,-405 1083,-688 1757,-1611 527,-4983 -733,-6499 -1041,-1253 -2227,-2209 -3082,-2366 -66,2114 -986,3086 -1846,3995 -743,785 -1437,1518 -1384,2989 40,787 500,1497 1140,2022 262,215 553,399 860,547zm3389 -97c848,-806 182,-2301 -373,-3020 -418,-543 -916,-945 -1293,-1077 -72,976 -516,1445 -933,1886 -672,710 -1002,1559 -131,2274 727,597 2043,591 2730,-63z"/></g><text x="0" y="27792" fill="#000000" font-size="5px" font-weight="bold" font-family="'Helvetica Neue', Helvetica, Arial-Unicode, Arial, Sans-serif">Created by Andhika Pramanto</text><text x="0" y="27797" fill="#000000" font-size="5px" font-weight="bold" font-family="'Helvetica Neue', Helvetica, Arial-Unicode, Arial, Sans-serif">from the Noun Project</text></svg>