<svg xmlns="http://www.w3.org/2000/svg" xmlns:xlink="http://www.w3.org/1999/xlink" xml:space="preserve" version="1.1" style="shape-rendering:geometricPrecision;text-rendering:geometricPrecision;image-rendering:optimizeQuality;" viewBox="0 0 27777 34721.25" x="0px" y="0px" fill-rule="evenodd" clip-rule="evenodd"><defs><style type="text/css">
   
    .fil0 {fill:#FFD700;fill-rule:nonzero}
   
  </style></defs><g><path class="fil0" d="M3980 22365c-994,-788 -748,-1849 45,-2687 336,-356 697,-737 695,-1584 0,-134 100,-255 249,-250 464,0 1174,472 1706,1163 700,909 1238,2505 164,3358l1909 0c-994,-788 -748,-1849 45,-2687 336,-356 697,-737 695,-1584 0,-134 119,-282 249,-250 464,0 1174,472 1706,1163 689,895 1240,2504 164,3358l893 0 0 -4585 -2111 0c-1721,0 -3005,-1512 -2964,-3188 3,-136 114,-243 249,-243l1074 -1c-994,-788 -748,-1849 45,-2687 336,-356 697,-737 695,-1584 0,-134 122,-275 249,-250 464,0 1174,472 1706,1163 422,548 746,1241 763,1951 58,445 -243,1124 -599,1407l893 0 0 -4446c-1664,-76 -2873,-1555 -2833,-3184 3,-135 114,-243 249,-243l2566 -1c-978,-808 -708,-1831 77,-2660 337,-356 698,-738 695,-1585 0,-134 96,-250 249,-250 464,0 1174,472 1707,1163 421,548 746,1241 762,1951 13,482 -188,1065 -566,1381l2523 0c144,0 258,121 250,265 39,1633 -1201,3088 -2834,3163l0 4446 936 0c-994,-788 -748,-1849 45,-2687 336,-356 697,-737 695,-1584 0,-134 109,-301 249,-250 464,0 1154,487 1706,1163 674,826 763,1951 763,1951 44,555 -162,1060 -599,1407l1031 0c144,0 259,121 250,265 40,1654 -1232,3125 -2896,3166 -720,17 -1458,1 -2180,1l0 4585 936 0c-994,-788 -748,-1849 45,-2687 336,-356 697,-737 695,-1584 0,-134 89,-262 249,-250 464,0 1174,472 1706,1163 700,909 1238,2505 164,3358l1842 0c-994,-788 -748,-1849 44,-2687 337,-356 698,-737 695,-1584 0,-138 112,-249 249,-249l0 -1c464,0 1175,472 1707,1163 700,909 1238,2505 164,3358 164,0 308,79 297,265 40,1665 -1261,3167 -2966,3167l-14499 0c-1690,0 -2966,-1462 -2966,-3108 -23,-257 208,-324 273,-324zm275 -418c-24,-452 154,-647 372,-877 148,-157 307,-325 306,-691 0,-134 131,-263 249,-250 264,0 654,252 938,621 253,329 452,806 396,1234 846,-654 288,-1993 -235,-2673 -348,-451 -758,-790 -1076,-915 -72,835 -457,1242 -819,1624 -567,599 -861,1314 -131,1927zm1193 380c1028,-92 477,-1221 -50,-1602 -139,640 -670,725 -647,1171 18,329 425,447 697,431zm3575 -380c-24,-452 154,-647 372,-877 148,-157 307,-325 306,-691 0,-134 136,-257 249,-250 264,0 654,252 938,621 253,329 452,806 396,1234 856,-661 263,-2025 -235,-2673 -348,-451 -758,-790 -1076,-915 -72,835 -457,1242 -819,1624 -567,599 -861,1314 -131,1927zm1193 380c1044,-93 450,-1241 -50,-1602 -139,640 -670,725 -647,1171 18,328 430,446 697,431zm6340 -380c-24,-452 153,-647 372,-877 148,-157 307,-325 306,-691 0,-134 50,-230 249,-250 263,0 654,252 938,621 253,329 452,806 396,1234 32,-25 64,-52 93,-80 727,-691 144,-1980 -329,-2593 -347,-451 -757,-790 -1075,-915 -72,835 -457,1242 -819,1624 -567,599 -861,1314 -131,1927zm1193 380c816,-73 629,-816 278,-1272 -108,-140 -225,-255 -328,-330 -139,640 -670,725 -647,1171 18,329 428,446 697,431zm3582 -321l-9 -99c-13,-428 174,-626 374,-837 148,-157 307,-325 306,-691 0,-137 112,-249 249,-249l0 -1c263,0 654,252 938,621 251,326 430,755 402,1173 742,-674 193,-1960 -309,-2612 -347,-451 -758,-790 -1075,-915 -72,835 -458,1242 -819,1624 -296,313 -573,605 -554,1173 13,320 227,612 497,813zm1025 325c889,-25 920,-652 439,-1276 -108,-140 -225,-255 -328,-330 -139,640 -670,725 -647,1171 13,239 320,419 536,435zm-9356 34l1845 0 0 -4585 -1845 0 0 4585zm10633 500l-19422 0c83,1306 1117,2432 2462,2432l14499 0c1346,0 2378,-1125 2461,-2432zm-10633 -12959l0 4442 1845 0 0 -4442 -1845 0zm982 -3444c1076,-96 436,-1250 -50,-1601 -139,640 -669,724 -646,1170 18,328 430,447 696,431zm1069 -342c837,-648 283,-2000 -236,-2673 -348,-451 -758,-790 -1075,-915 -73,834 -458,1241 -820,1623 -566,599 -861,1315 -130,1928 -24,-453 153,-647 371,-878 149,-156 308,-324 307,-690 0,-134 149,-289 249,-250 707,0 1425,1158 1334,1855zm-4835 8190c1027,-92 477,-1221 -50,-1602 -139,640 -670,725 -647,1171 18,329 425,447 697,431zm1068 -343c846,-653 288,-1993 -235,-2672 -348,-452 -758,-791 -1076,-916 -72,835 -457,1242 -819,1624 -567,599 -861,1314 -131,1927 -24,-452 154,-646 372,-877 148,-157 307,-325 306,-691 0,-134 136,-276 249,-250 264,0 654,252 938,621 253,329 452,806 396,1234zm6465 343c340,-30 581,-159 575,-528 -7,-393 -311,-846 -625,-1074 -139,640 -670,725 -647,1171 18,328 430,446 697,431zm1068 -343c856,-661 263,-2025 -236,-2672 -347,-452 -757,-791 -1075,-916 -72,835 -457,1242 -819,1624 -567,599 -861,1314 -131,1927 -24,-452 153,-646 372,-877 148,-157 307,-325 306,-691 0,-134 123,-283 249,-250 263,0 654,252 938,621 253,329 452,806 396,1234zm1100 881l-11989 0c82,1284 1084,2400 2403,2433 2347,55 4770,-1 7125,-1 1345,0 2378,-1125 2461,-2432zm-2242 -7874l-7505 0c81,1284 1084,2400 2404,2433 880,-1 1760,-1 2640,-1 1345,0 2377,-1125 2461,-2432z"/></g><text x="0" y="27792" fill="#000000" font-size="5px" font-weight="bold" font-family="'Helvetica Neue', Helvetica, Arial-Unicode, Arial, Sans-serif">Created by Andhika Pramanto</text><text x="0" y="27797" fill="#000000" font-size="5px" font-weight="bold" font-family="'Helvetica Neue', Helvetica, Arial-Unicode, Arial, Sans-serif">from the Noun Project</text></svg>