<?xml version="1.0" encoding="UTF-8"?>
<svg version="1.1" xmlns="http://www.w3.org/2000/svg" width="458" height="477">
<path d="M0 0 C0.99 0.33 1.98 0.66 3 1 C1.83572675 4.0307113 0.55966703 6.98912955 -0.8046875 9.93359375 C-9.66547274 29.09995027 -15.50602175 48.64964157 -8.453125 69.53515625 C-3.51873341 81.30076201 2.46119347 91.46545405 11 101 C28.47229306 121.05605247 45.53192885 142.20645136 51 169 C55.57204846 164.42795154 54.29560874 156.10672812 54.32568359 150.01879883 C54.22312092 141.53441622 52.48772544 134.08964733 50 126 C49.32550724 123.66884837 48.66352859 121.33430553 48 119 C66.49541463 127.55514774 78.87034164 151.98963169 86 170 C86.42796875 171.04800781 86.8559375 172.09601563 87.296875 173.17578125 C90.81520514 182.31309159 92.57541446 191.36479647 94 201 C94.28037109 202.59328125 94.28037109 202.59328125 94.56640625 204.21875 C97.86783797 233.00961403 93.06503414 263.09944597 75.328125 286.671875 C59.74897509 306.2731473 38.83269546 314.8909551 15 320 C17.82299783 316.41787671 20.77552947 313.22447053 24 310 C39.71810848 293.33815416 46.58792981 275.65236133 46.19921875 252.85546875 C45.93803284 244.46258397 44.70804713 236.21709159 43 228 C34.74388877 236.16669486 26.9132833 244.65644987 20 254 C18.68 253.67 17.36 253.34 16 253 C16.15984375 251.95070313 16.3196875 250.90140625 16.484375 249.8203125 C19.29517041 227.14456942 16.22530755 207.61469622 7 187 C6.72140137 186.36980957 6.44280273 185.73961914 6.15576172 185.09033203 C0.85490847 173.15944689 -4.96811788 161.20415564 -11.796875 150.0703125 C-13 148 -13 148 -13 146 C-13.66 146 -14.32 146 -15 146 C-14.95101562 146.80050781 -14.90203125 147.60101563 -14.8515625 148.42578125 C-15.82857153 171.95113016 -32.10232865 193.78614084 -45.87890625 211.62304688 C-63.10169735 233.96827032 -73.58468686 253.04964535 -72 282 C-71.43221039 286.22489116 -70.49569535 290.01351401 -69 294 C-68.69449219 294.83144531 -68.38898438 295.66289062 -68.07421875 296.51953125 C-65.10827843 303.36815709 -60.35390015 308.3372637 -55.23046875 313.62890625 C-53 316 -53 316 -53 317 C-66.81083192 318.09997776 -80.7120492 312.20570515 -91.2421875 303.3828125 C-100.09947475 295.58250032 -107.2928168 287.35256487 -113 277 C-113.3815625 276.319375 -113.763125 275.63875 -114.15625 274.9375 C-123.19918461 257.94774406 -122.06625004 238.87219591 -118.9140625 220.4921875 C-114.48817485 194.51996991 -111.98157015 168.16787927 -109 142 C-108.34 142 -107.68 142 -107 142 C-105.66674805 143.81298828 -105.66674805 143.81298828 -104.07421875 146.4453125 C-101.01297187 151.39436793 -97.86867774 156.27258044 -94.64453125 161.1171875 C-94.17183807 161.82796448 -93.6991449 162.53874146 -93.21212769 163.27105713 C-92.23939686 164.73251412 -91.26609439 166.19359079 -90.29223633 167.65429688 C-88.80233059 169.89026166 -87.31615464 172.12867645 -85.83007812 174.3671875 C-84.87262141 175.80483776 -83.91494696 177.24234303 -82.95703125 178.6796875 C-82.51841263 179.34120819 -82.07979401 180.00272888 -81.62788391 180.68429565 C-79.23610294 184.26315566 -76.74801891 187.67919599 -74 191 C-73.98382629 190.41293777 -73.96765259 189.82587555 -73.95098877 189.22102356 C-72.36850926 132.82057074 -72.36850926 132.82057074 -68 110 C-67.76410156 108.75089844 -67.76410156 108.75089844 -67.5234375 107.4765625 C-64.52878142 92.1987408 -59.42211016 77.16465419 -53 63 C-52.59652344 62.08734375 -52.19304687 61.1746875 -51.77734375 60.234375 C-44.55322858 44.81731289 -34.50862504 31.58537439 -22.55419922 19.56884766 C-21.19349442 18.19531812 -19.8617595 16.79321253 -18.53515625 15.38671875 C-13.02564069 9.61816629 -6.86843637 4.10456107 0 0 Z " fill="#FF834B" transform="translate(242,78)"/>
</svg>
