<?xml version="1.0" encoding="UTF-8"?>
<svg xmlns="http://www.w3.org/2000/svg" xmlns:xlink="http://www.w3.org/1999/xlink" width="2000px" height="1895px" viewBox="0 0 2000 1895" version="1.1">
<g id="surface1">
<path style=" stroke:none;fill-rule:nonzero;fill:rgb(100%,70.19608%,35.294119%);fill-opacity:1;" d="M 1008.054688 334.648438 C 1031.59375 349.6875 1046.804688 371.933594 1061.914062 394.875 C 1064.171875 398.242188 1066.425781 401.621094 1068.75 405.085938 C 1075.429688 415.164062 1082.03125 425.292969 1088.601562 435.449219 C 1091.367188 439.707031 1091.367188 439.707031 1094.1875 444.0625 C 1127.3125 495.632812 1154.171875 545.46875 1144.980469 608.820312 C 1140.1875 623.835938 1134.695312 638.523438 1128.867188 653.171875 C 1132.34375 653.117188 1132.34375 653.117188 1135.898438 653.066406 C 1160.070312 652.703125 1184.238281 652.460938 1208.40625 652.285156 C 1217.429688 652.207031 1226.445312 652.089844 1235.460938 651.953125 C 1248.4375 651.757812 1261.40625 651.671875 1274.382812 651.59375 C 1278.398438 651.515625 1282.414062 651.425781 1286.554688 651.347656 C 1310.4375 651.335938 1324.160156 653.273438 1342.3125 669.296875 C 1349.6875 684.054688 1347.257812 701.4375 1347.34375 717.6875 C 1347.46875 723.171875 1347.46875 723.171875 1347.597656 728.789062 C 1347.859375 774.835938 1333.953125 816.269531 1302.78125 850.761719 C 1275.820312 875.957031 1241.648438 895.75 1204.0625 895.476562 C 1200.851562 895.46875 1197.625 895.449219 1194.316406 895.4375 C 1190.984375 895.410156 1187.664062 895.371094 1184.25 895.34375 C 1180.859375 895.320312 1177.480469 895.304688 1173.984375 895.28125 C 1165.664062 895.234375 1157.335938 895.164062 1149.003906 895.085938 C 1149.171875 897.726562 1149.335938 900.359375 1149.511719 903.085938 C 1151.269531 935.867188 1143.445312 966.582031 1123.585938 993.117188 C 1114.726562 1007.226562 1117.21875 1012.128906 1120.820312 1028.132812 C 1122.753906 1034.539062 1122.753906 1034.539062 1124.734375 1041.0625 C 1135.265625 1075.9375 1138.457031 1108.359375 1138.4375 1144.8125 C 1138.445312 1151.179688 1138.445312 1151.179688 1138.457031 1157.6875 C 1138.039062 1187.207031 1134.171875 1213.828125 1124.84375 1241.828125 C 1127.5 1242.578125 1130.15625 1243.328125 1132.898438 1244.101562 C 1166.296875 1260.117188 1191.71875 1289.5 1204.628906 1323.984375 C 1210.929688 1342.011719 1209.851562 1360.058594 1209.414062 1378.914062 C 1211.84375 1378.828125 1214.277344 1378.75 1216.777344 1378.664062 C 1285.632812 1376.582031 1336.777344 1379.667969 1390.644531 1427.296875 C 1421.191406 1458.398438 1432.898438 1498.339844 1433.117188 1541.210938 C 1433.054688 1545.371094 1432.988281 1549.523438 1432.929688 1553.796875 C 1433.015625 1560.164062 1433.015625 1560.164062 1433.117188 1566.671875 C 1433.015625 1585.195312 1432.929688 1597.207031 1423.484375 1613.429688 C 1407.3125 1627.21875 1390.527344 1625.460938 1370.371094 1625.460938 C 1367.03125 1625.46875 1363.703125 1625.488281 1360.265625 1625.5 C 1349.054688 1625.546875 1337.832031 1625.554688 1326.621094 1625.578125 C 1318.601562 1625.605469 1310.578125 1625.625 1302.546875 1625.65625 C 1280.734375 1625.722656 1258.90625 1625.773438 1237.078125 1625.800781 C 1223.445312 1625.820312 1209.824219 1625.851562 1196.191406 1625.867188 C 1153.574219 1625.945312 1110.957031 1626.007812 1068.351562 1626.035156 C 1019.109375 1626.085938 969.875 1626.179688 920.632812 1626.347656 C 882.609375 1626.476562 844.570312 1626.53125 806.542969 1626.542969 C 783.808594 1626.554688 761.085938 1626.59375 738.359375 1626.6875 C 716.984375 1626.789062 695.617188 1626.796875 674.238281 1626.757812 C 666.386719 1626.757812 658.535156 1626.789062 650.695312 1626.835938 C 639.980469 1626.914062 629.277344 1626.882812 618.574219 1626.828125 C 613.90625 1626.894531 613.90625 1626.894531 609.140625 1626.960938 C 594.25 1626.789062 585.929688 1625.332031 573.289062 1617.179688 C 555.851562 1599.289062 559.992188 1578.328125 559.773438 1554.550781 C 559.65625 1550.351562 559.539062 1546.140625 559.421875 1541.804688 C 559.042969 1495.265625 572.460938 1456.75 605.332031 1423.261719 C 657.597656 1376.75 716.320312 1376.476562 782.53125 1378.914062 C 782.335938 1371.609375 782.335938 1371.609375 782.140625 1364.160156 C 782.195312 1326.113281 800.3125 1292.570312 826.828125 1266.023438 C 838.4375 1257.0625 850.390625 1249.171875 863.078125 1241.828125 C 862.492188 1238.339844 861.914062 1234.84375 861.308594 1231.25 C 860.195312 1224.511719 860.195312 1224.511719 859.042969 1217.636719 C 858.359375 1214.21875 857.675781 1210.8125 856.972656 1207.296875 C 847.949219 1143.261719 855.789062 1081.894531 876.230469 1021.015625 C 877.195312 1016.71875 878.171875 1012.414062 879.179688 1007.976562 C 871.476562 995.398438 871.476562 995.398438 864.882812 987.570312 C 844.804688 960.683594 840.4375 931.835938 842.9375 899.121094 C 839.042969 899.257812 835.15625 899.394531 831.140625 899.539062 C 777.492188 900.65625 734.09375 891.710938 693.007812 854.746094 C 654.746094 814.578125 644.929688 771.242188 644.34375 717.429688 C 644.226562 713.859375 644.109375 710.292969 643.992188 706.621094 C 643.828125 689.550781 644.0625 679.941406 652.976562 665.03125 C 665.78125 653.554688 676.023438 652.664062 692.539062 652.714844 C 696.328125 652.714844 700.117188 652.714844 704.023438 652.714844 C 708.105469 652.734375 712.179688 652.753906 716.375 652.773438 C 720.566406 652.78125 724.746094 652.78125 729.0625 652.792969 C 742.429688 652.8125 755.8125 652.871094 769.1875 652.921875 C 778.25 652.9375 787.3125 652.960938 796.375 652.96875 C 818.613281 653.015625 840.839844 653.085938 863.078125 653.171875 C 861.945312 650.304688 860.8125 647.429688 859.648438 644.484375 C 840.398438 593.976562 841.425781 553.757812 862.890625 504.804688 C 884.367188 458.679688 947.195312 326.601562 1008.054688 334.648438 Z M 1008.054688 334.648438 "/>
<path style=" stroke:none;fill-rule:nonzero;fill:rgb(100%,99.215686%,98.823529%);fill-opacity:1;" d="M 721.828125 1454.929688 C 726.804688 1454.902344 731.796875 1454.875 736.933594 1454.84375 C 742.460938 1454.824219 748 1454.8125 753.535156 1454.804688 C 759.355469 1454.785156 765.175781 1454.757812 770.996094 1454.726562 C 790.125 1454.640625 809.257812 1454.601562 828.390625 1454.5625 C 834.980469 1454.539062 841.570312 1454.53125 848.15625 1454.511719 C 879.132812 1454.433594 910.097656 1454.375 941.0625 1454.34375 C 976.789062 1454.304688 1012.5 1454.199219 1048.222656 1454.03125 C 1075.851562 1453.914062 1103.46875 1453.859375 1131.09375 1453.835938 C 1147.585938 1453.828125 1164.070312 1453.796875 1180.566406 1453.691406 C 1196.09375 1453.601562 1211.621094 1453.585938 1227.148438 1453.625 C 1232.832031 1453.625 1238.507812 1453.601562 1244.1875 1453.546875 C 1280.046875 1453.210938 1306.09375 1454.617188 1334.355469 1478.546875 C 1353.171875 1501.75 1358.417969 1517.578125 1358.417969 1548.25 C 1119.210938 1548.25 879.992188 1548.25 633.523438 1548.25 C 637.421875 1509.257812 639.617188 1494.023438 668.261719 1470.242188 C 686.152344 1457.742188 700.421875 1455.007812 721.828125 1454.929688 Z M 721.828125 1454.929688 "/>
<path style=" stroke:none;fill-rule:nonzero;fill:rgb(100%,99.607843%,99.215686%);fill-opacity:1;" d="M 722.117188 729.773438 C 902.859375 729.773438 1083.601562 729.773438 1269.824219 729.773438 C 1269.824219 759.492188 1267.546875 775.148438 1247.929688 797.3125 C 1227.65625 815.125 1214.875 822.929688 1187.636719 823.132812 C 1184.109375 823.164062 1180.585938 823.203125 1176.953125 823.234375 C 1173.117188 823.25 1169.277344 823.273438 1165.320312 823.289062 C 1159.21875 823.339844 1159.21875 823.339844 1152.988281 823.390625 C 1139.523438 823.484375 1126.054688 823.554688 1112.585938 823.613281 C 1107.988281 823.632812 1103.378906 823.652344 1098.632812 823.679688 C 1074.257812 823.789062 1049.875 823.867188 1025.5 823.925781 C 1005.351562 823.976562 985.195312 824.09375 965.046875 824.257812 C 940.695312 824.453125 916.335938 824.550781 891.984375 824.578125 C 882.714844 824.609375 873.445312 824.667969 864.179688 824.765625 C 851.191406 824.890625 838.203125 824.890625 825.203125 824.863281 C 819.511719 824.960938 819.511719 824.960938 813.691406 825.070312 C 787.117188 824.8125 767.664062 818.445312 746.289062 802.351562 C 724.171875 778.742188 722.117188 761.71875 722.117188 729.773438 Z M 722.117188 729.773438 "/>
<path style=" stroke:none;fill-rule:nonzero;fill:rgb(100%,99.215686%,98.823529%);fill-opacity:1;" d="M 991.945312 439.484375 C 1007.804688 444.765625 1012.441406 454.394531 1020.890625 467.960938 C 1023.242188 471.6875 1023.242188 471.6875 1025.632812 475.488281 C 1037.414062 494.578125 1048.339844 514.0625 1058.640625 533.976562 C 1060.039062 536.59375 1061.4375 539.210938 1062.871094 541.90625 C 1073.054688 562.246094 1076.203125 579.5625 1069.960938 601.648438 C 1058.339844 624.570312 1043.195312 643.75 1018.378906 652.664062 C 1014.96875 652.832031 1011.5625 653 1008.054688 653.171875 C 1000.332031 653.789062 1000.332031 653.789062 992.453125 654.433594 C 971.308594 654.070312 956.425781 645.742188 941.5625 631.007812 C 925.722656 612.792969 921.945312 598.222656 922.429688 574.8125 C 927.453125 525.476562 962.109375 477.773438 991.945312 439.484375 Z M 991.945312 439.484375 "/>
<path style=" stroke:none;fill-rule:nonzero;fill:rgb(100%,99.607843%,98.823529%);fill-opacity:1;" d="M 947.648438 1052.335938 C 951.894531 1053.183594 951.894531 1053.183594 956.21875 1054.0625 C 969.617188 1056.726562 982.0625 1056.894531 995.722656 1056.867188 C 1002.882812 1056.882812 1002.882812 1056.882812 1010.175781 1056.894531 C 1023.261719 1056.398438 1035.488281 1054.804688 1048.328125 1052.335938 C 1059.34375 1085.46875 1062.167969 1115.566406 1061.671875 1150.351562 C 1061.679688 1154.953125 1061.6875 1159.550781 1061.710938 1164.289062 C 1061.554688 1187.753906 1059.96875 1202.8125 1052.351562 1225.703125 C 1015.148438 1225.703125 977.929688 1225.703125 939.589844 1225.703125 C 932.871094 1198.78125 930.117188 1179.257812 930.28125 1152.375 C 930.28125 1148.671875 930.292969 1144.96875 930.304688 1141.164062 C 931.367188 1068.632812 931.367188 1068.632812 947.648438 1052.335938 Z M 947.648438 1052.335938 "/>
<path style=" stroke:none;fill-rule:nonzero;fill:rgb(100%,99.607843%,99.215686%);fill-opacity:1;" d="M 923.671875 1301.53125 C 927.03125 1301.464844 930.398438 1301.398438 933.867188 1301.335938 C 949.304688 1301.152344 964.757812 1300.984375 980.195312 1300.898438 C 988.320312 1300.828125 996.445312 1300.722656 1004.570312 1300.566406 C 1016.320312 1300.34375 1028.054688 1300.253906 1039.804688 1300.195312 C 1043.398438 1300.109375 1046.992188 1300.019531 1050.695312 1299.921875 C 1076.257812 1300.007812 1092.929688 1306.203125 1112.765625 1322.46875 C 1131.71875 1343.390625 1132.898438 1348.875 1132.898438 1378.914062 C 1042.53125 1378.914062 952.15625 1378.914062 859.042969 1378.914062 C 859.042969 1346.023438 859.042969 1346.023438 875.15625 1326.503906 C 890.460938 1312 902.246094 1301.90625 923.671875 1301.53125 Z M 923.671875 1301.53125 "/>
<path style=" stroke:none;fill-rule:nonzero;fill:rgb(100%,99.215686%,98.823529%);fill-opacity:1;" d="M 919.453125 899.121094 C 969.960938 899.121094 1020.460938 899.121094 1072.492188 899.121094 C 1072.492188 932.898438 1070.03125 943.984375 1048.328125 967.65625 C 1028.9375 983.4375 1007.441406 986.835938 982.882812 985.851562 C 960.703125 981.71875 944.316406 969.757812 929.746094 952.84375 C 917.167969 933.691406 919.453125 923.78125 919.453125 899.121094 Z M 919.453125 899.121094 "/>
</g>
</svg>
