<?xml version="1.0" encoding="UTF-8"?>
<svg xmlns="http://www.w3.org/2000/svg" xmlns:xlink="http://www.w3.org/1999/xlink" width="800px" height="758px" viewBox="0 0 799 758" version="1.1">
<g id="surface1">
<path style=" stroke:none;fill-rule:nonzero;fill:rgb(100%,70.19608%,35.294119%);fill-opacity:1;" d="M 402.722656 133.859375 C 412.136719 139.875 418.222656 148.773438 424.265625 157.949219 C 425.167969 159.296875 426.070312 160.648438 427 162.035156 C 429.671875 166.066406 432.3125 170.117188 434.941406 174.179688 C 436.046875 175.882812 436.046875 175.882812 437.175781 177.625 C 450.425781 198.253906 461.167969 218.1875 457.492188 243.527344 C 455.574219 249.535156 453.378906 255.410156 451.046875 261.269531 C 452.4375 261.246094 452.4375 261.246094 453.859375 261.226562 C 463.527344 261.082031 473.195312 260.984375 482.863281 260.914062 C 486.472656 260.882812 490.078125 260.835938 493.683594 260.78125 C 498.875 260.703125 504.0625 260.667969 509.253906 260.636719 C 510.859375 260.605469 512.464844 260.570312 514.121094 260.539062 C 523.675781 260.535156 529.164062 261.308594 536.425781 267.71875 C 539.375 273.621094 538.402344 280.574219 538.4375 287.074219 C 538.488281 289.269531 538.488281 289.269531 538.539062 291.515625 C 538.644531 309.933594 533.082031 326.507812 520.613281 340.304688 C 509.828125 350.382812 496.160156 358.300781 481.125 358.191406 C 479.839844 358.1875 478.550781 358.179688 477.226562 358.175781 C 475.894531 358.164062 474.566406 358.148438 473.199219 358.136719 C 471.84375 358.128906 470.492188 358.121094 469.09375 358.113281 C 465.765625 358.09375 462.433594 358.066406 459.101562 358.035156 C 459.167969 359.089844 459.234375 360.144531 459.304688 361.234375 C 460.007812 374.347656 456.878906 386.632812 448.933594 397.246094 C 445.390625 402.890625 446.386719 404.851562 447.828125 411.253906 C 448.601562 413.816406 448.601562 413.816406 449.394531 416.425781 C 453.605469 430.375 454.882812 443.34375 454.875 457.925781 C 454.878906 460.472656 454.878906 460.472656 454.882812 463.074219 C 454.714844 474.882812 453.167969 485.53125 449.4375 496.730469 C 450.5 497.03125 451.5625 497.332031 452.660156 497.640625 C 466.019531 504.046875 476.1875 515.800781 481.351562 529.59375 C 483.871094 536.804688 483.441406 544.023438 483.265625 551.566406 C 484.238281 551.53125 485.210938 551.5 486.210938 551.464844 C 513.753906 550.632812 534.210938 551.867188 555.757812 570.917969 C 567.976562 583.359375 572.660156 599.335938 572.746094 616.484375 C 572.722656 618.148438 572.695312 619.808594 572.671875 621.519531 C 572.707031 624.066406 572.707031 624.066406 572.746094 626.667969 C 572.707031 634.078125 572.671875 638.882812 568.894531 645.371094 C 562.425781 650.886719 555.710938 650.183594 547.648438 650.183594 C 546.3125 650.1875 544.980469 650.195312 543.605469 650.199219 C 539.121094 650.21875 534.632812 650.222656 530.148438 650.230469 C 526.941406 650.242188 523.730469 650.25 520.519531 650.261719 C 511.792969 650.289062 503.0625 650.308594 494.332031 650.320312 C 488.878906 650.328125 483.429688 650.339844 477.976562 650.347656 C 460.929688 650.378906 443.882812 650.402344 426.839844 650.414062 C 407.144531 650.433594 387.449219 650.472656 367.753906 650.539062 C 352.542969 650.589844 337.328125 650.613281 322.117188 650.617188 C 313.023438 650.621094 303.933594 650.636719 294.84375 650.675781 C 286.292969 650.714844 277.746094 650.71875 269.195312 650.703125 C 266.054688 650.703125 262.914062 650.714844 259.777344 650.734375 C 255.492188 650.765625 251.210938 650.753906 246.929688 650.730469 C 245.0625 650.757812 245.0625 650.757812 243.15625 650.785156 C 237.199219 650.714844 233.871094 650.132812 228.816406 646.871094 C 221.839844 639.714844 223.496094 631.332031 223.410156 621.820312 C 223.363281 620.140625 223.316406 618.457031 223.269531 616.722656 C 223.117188 598.105469 228.484375 582.699219 241.632812 569.304688 C 262.539062 550.699219 286.027344 550.589844 312.511719 551.566406 C 312.433594 548.644531 312.433594 548.644531 312.355469 545.664062 C 312.378906 530.445312 319.625 517.027344 330.230469 506.410156 C 334.875 502.824219 339.65625 499.667969 344.730469 496.730469 C 344.496094 495.335938 344.265625 493.9375 344.023438 492.5 C 343.578125 489.804688 343.578125 489.804688 343.117188 487.054688 C 342.84375 485.6875 342.570312 484.324219 342.289062 482.917969 C 338.679688 457.304688 341.816406 432.757812 349.992188 408.40625 C 350.378906 406.6875 350.769531 404.964844 351.171875 403.191406 C 348.089844 398.160156 348.089844 398.160156 345.453125 395.027344 C 337.421875 384.273438 335.675781 372.734375 336.675781 359.648438 C 335.117188 359.703125 333.5625 359.757812 331.957031 359.816406 C 310.496094 360.261719 293.136719 356.683594 276.703125 341.898438 C 261.398438 325.832031 257.472656 308.496094 257.238281 286.972656 C 257.191406 285.542969 257.144531 284.117188 257.097656 282.648438 C 257.03125 275.820312 257.125 271.976562 260.691406 266.011719 C 265.8125 261.421875 269.910156 261.066406 276.515625 261.085938 C 278.03125 261.085938 279.546875 261.085938 281.109375 261.085938 C 282.742188 261.09375 284.371094 261.101562 286.050781 261.109375 C 287.726562 261.113281 289.398438 261.113281 291.125 261.117188 C 296.472656 261.125 301.824219 261.148438 307.175781 261.167969 C 310.800781 261.175781 314.425781 261.183594 318.050781 261.1875 C 326.945312 261.207031 335.835938 261.234375 344.730469 261.269531 C 344.277344 260.121094 343.824219 258.972656 343.359375 257.792969 C 335.660156 237.589844 336.070312 221.503906 344.65625 201.921875 C 353.246094 183.472656 378.378906 130.640625 402.722656 133.859375 Z M 402.722656 133.859375 "/>
<path style=" stroke:none;fill-rule:nonzero;fill:rgb(100%,99.215686%,98.823529%);fill-opacity:1;" d="M 288.230469 581.972656 C 290.222656 581.960938 292.21875 581.949219 294.273438 581.9375 C 296.484375 581.929688 298.699219 581.925781 300.914062 581.921875 C 303.242188 581.914062 305.570312 581.902344 307.898438 581.890625 C 315.550781 581.855469 323.203125 581.839844 330.855469 581.824219 C 333.492188 581.816406 336.128906 581.8125 338.761719 581.804688 C 351.152344 581.773438 363.539062 581.75 375.925781 581.738281 C 390.214844 581.722656 404.5 581.679688 418.789062 581.613281 C 429.839844 581.566406 440.886719 581.542969 451.9375 581.535156 C 458.535156 581.53125 465.128906 581.519531 471.726562 581.476562 C 477.9375 581.441406 484.148438 581.433594 490.359375 581.449219 C 492.632812 581.449219 494.902344 581.441406 497.175781 581.417969 C 511.519531 581.285156 521.9375 581.847656 533.242188 591.417969 C 540.769531 600.699219 542.867188 607.03125 542.867188 619.300781 C 447.183594 619.300781 351.496094 619.300781 252.910156 619.300781 C 254.46875 603.703125 255.347656 597.609375 266.804688 588.097656 C 273.960938 583.097656 279.667969 582.003906 288.230469 581.972656 Z M 288.230469 581.972656 "/>
<path style=" stroke:none;fill-rule:nonzero;fill:rgb(100%,99.607843%,99.215686%);fill-opacity:1;" d="M 288.347656 291.910156 C 360.644531 291.910156 432.941406 291.910156 507.429688 291.910156 C 507.429688 303.796875 506.519531 310.058594 498.671875 318.925781 C 490.5625 326.050781 485.449219 329.171875 474.554688 329.253906 C 473.144531 329.265625 471.734375 329.28125 470.28125 329.292969 C 468.746094 329.300781 467.210938 329.308594 465.628906 329.316406 C 463.1875 329.335938 463.1875 329.335938 460.695312 329.355469 C 455.308594 329.394531 449.921875 329.421875 444.535156 329.445312 C 442.695312 329.453125 440.851562 329.460938 438.953125 329.472656 C 429.203125 329.515625 419.449219 329.546875 409.699219 329.570312 C 401.640625 329.589844 393.578125 329.636719 385.519531 329.703125 C 375.777344 329.78125 366.035156 329.820312 356.292969 329.832031 C 352.585938 329.84375 348.878906 329.867188 345.171875 329.90625 C 339.976562 329.957031 334.78125 329.957031 329.582031 329.945312 C 327.304688 329.984375 327.304688 329.984375 324.976562 330.027344 C 314.347656 329.925781 306.566406 327.378906 298.015625 320.941406 C 289.167969 311.496094 288.347656 304.6875 288.347656 291.910156 Z M 288.347656 291.910156 "/>
<path style=" stroke:none;fill-rule:nonzero;fill:rgb(100%,99.215686%,98.823529%);fill-opacity:1;" d="M 396.277344 175.792969 C 402.621094 177.90625 404.476562 181.757812 407.855469 187.183594 C 408.796875 188.675781 408.796875 188.675781 409.753906 190.195312 C 414.464844 197.832031 418.835938 205.625 422.957031 213.589844 C 423.515625 214.636719 424.074219 215.683594 424.648438 216.761719 C 428.722656 224.898438 429.980469 231.824219 427.484375 240.660156 C 422.835938 249.828125 416.777344 257.5 406.851562 261.066406 C 405.488281 261.132812 404.125 261.199219 402.722656 261.269531 C 399.632812 261.515625 399.632812 261.515625 396.480469 261.773438 C 388.023438 261.628906 382.070312 258.296875 376.125 252.402344 C 369.789062 245.117188 368.277344 239.289062 368.472656 229.925781 C 370.480469 210.191406 384.34375 191.109375 396.277344 175.792969 Z M 396.277344 175.792969 "/>
<path style=" stroke:none;fill-rule:nonzero;fill:rgb(100%,99.607843%,98.823529%);fill-opacity:1;" d="M 378.558594 420.933594 C 380.257812 421.273438 380.257812 421.273438 381.988281 421.625 C 387.347656 422.691406 392.324219 422.757812 397.789062 422.746094 C 400.652344 422.753906 400.652344 422.753906 403.570312 422.757812 C 408.804688 422.558594 413.695312 421.921875 418.832031 420.933594 C 423.238281 434.1875 424.367188 446.226562 424.167969 460.140625 C 424.171875 461.980469 424.175781 463.820312 424.183594 465.714844 C 424.121094 475.101562 423.488281 481.125 420.441406 490.28125 C 405.558594 490.28125 390.671875 490.28125 375.335938 490.28125 C 372.648438 479.511719 371.546875 471.703125 371.613281 460.949219 C 371.613281 459.46875 371.617188 457.988281 371.621094 456.464844 C 372.046875 427.453125 372.046875 427.453125 378.558594 420.933594 Z M 378.558594 420.933594 "/>
<path style=" stroke:none;fill-rule:nonzero;fill:rgb(100%,99.607843%,99.215686%);fill-opacity:1;" d="M 368.96875 520.613281 C 370.3125 520.585938 371.660156 520.558594 373.046875 520.535156 C 379.222656 520.460938 385.402344 520.394531 391.578125 520.359375 C 394.828125 520.332031 398.078125 520.289062 401.328125 520.226562 C 406.027344 520.136719 410.722656 520.101562 415.421875 520.078125 C 416.859375 520.042969 418.296875 520.007812 419.777344 519.96875 C 430.003906 520.003906 436.671875 522.480469 444.605469 528.988281 C 452.1875 537.355469 452.660156 539.550781 452.660156 551.566406 C 416.511719 551.566406 380.363281 551.566406 343.117188 551.566406 C 343.117188 538.410156 343.117188 538.410156 349.5625 530.601562 C 355.683594 524.800781 360.398438 520.761719 368.96875 520.613281 Z M 368.96875 520.613281 "/>
<path style=" stroke:none;fill-rule:nonzero;fill:rgb(100%,99.215686%,98.823529%);fill-opacity:1;" d="M 367.28125 359.648438 C 387.484375 359.648438 407.683594 359.648438 428.496094 359.648438 C 428.496094 373.160156 427.511719 377.59375 418.832031 387.0625 C 411.074219 393.375 402.476562 394.734375 392.652344 394.339844 C 383.78125 392.6875 377.226562 387.902344 371.398438 381.136719 C 366.367188 373.476562 367.28125 369.511719 367.28125 359.648438 Z M 367.28125 359.648438 "/>
</g>
</svg>
