<?xml version="1.0" encoding="UTF-8"?>
<svg version="1.1" xmlns="http://www.w3.org/2000/svg" width="496" height="470">
<path d="M0 0 C163.68 0 327.36 0 496 0 C496 155.1 496 310.2 496 470 C332.32 470 168.64 470 0 470 C0 314.9 0 159.8 0 0 Z " fill="#FFFEFE" transform="translate(0,0)"/>
<path d="M0 0 C5.84400809 3.73092536 9.62231178 9.24753248 13.375 14.9375 C13.93445313 15.77361816 14.49390625 16.60973633 15.0703125 17.47119141 C16.7303378 19.97027193 18.36971436 22.48143722 20 25 C20.68690918 26.05743408 20.68690918 26.05743408 21.38769531 27.13623047 C29.61397016 39.92881166 36.28277006 52.28824468 34 68 C32.80886296 71.72535145 31.44711034 75.36714578 30 79 C30.86324387 78.98667633 30.86324387 78.98667633 31.743927 78.9730835 C37.74617559 78.88443099 43.74823748 78.82419163 49.75097656 78.78027344 C51.98966021 78.76018684 54.22829158 78.7329122 56.46679688 78.69824219 C59.68893349 78.64959536 62.91037501 78.62700126 66.1328125 78.609375 C67.12991241 78.58872986 68.12701233 78.56808472 69.15432739 78.54681396 C75.08573059 78.54490862 78.4914844 79.02629909 83 83 C84.8301331 86.6602662 84.22789176 90.97077393 84.25 95 C84.2809375 96.36318359 84.2809375 96.36318359 84.3125 97.75390625 C84.37748569 109.17514158 80.92471521 119.45095996 73.18359375 128.0078125 C66.48803323 134.25700232 58.00394005 139.16431386 48.671875 139.09765625 C47.87265625 139.09443359 47.0734375 139.09121094 46.25 139.08789062 C45.425 139.07951172 44.6 139.07113281 43.75 139.0625 C42.90953125 139.05798828 42.0690625 139.05347656 41.203125 139.04882812 C39.13538599 139.03707961 37.06768376 139.01914522 35 139 C35.04125 139.65476318 35.0825 140.30952637 35.125 140.98413086 C35.56154943 149.1157167 33.61885712 156.73162969 28.6875 163.3125 C26.48890294 166.8139694 27.10501344 168.02968727 28 172 C28.48146484 173.58748047 28.48146484 173.58748047 28.97265625 175.20703125 C31.58713142 183.85635234 32.37964931 191.89591895 32.375 200.9375 C32.37705444 202.51785034 32.37705444 202.51785034 32.37915039 204.13012695 C32.27656515 211.45309063 31.31484742 218.05545775 29 225 C29.66 225.185625 30.32 225.37125 31 225.5625 C39.29302791 229.53624254 45.60577184 236.8237249 48.8125 245.375 C50.37539539 249.84781663 50.10808025 254.32410714 50 259 C50.60360352 258.97905273 51.20720703 258.95810547 51.82910156 258.93652344 C68.92603242 258.42159491 81.62647008 259.18707649 95 271 C102.58652923 278.71270851 105.49336574 288.61894058 105.546875 299.25390625 C105.53140625 300.28386719 105.5159375 301.31382812 105.5 302.375 C105.52320313 303.95474609 105.52320313 303.95474609 105.546875 305.56640625 C105.52358158 310.16103249 105.49992976 313.1420697 103.15625 317.1640625 C99.13975872 320.58390109 94.97096082 320.14835743 89.96621704 320.14717102 C89.13822047 320.15084771 88.31022389 320.1545244 87.45713651 320.1583125 C84.67275275 320.16935706 81.8884063 320.17319445 79.10400391 320.17700195 C77.11169821 320.1832659 75.11939369 320.18991263 73.12709045 320.19691467 C67.7076878 320.21432785 62.28829396 320.22487678 56.86887026 320.2331202 C53.48494977 320.23826849 50.10103204 320.24434422 46.71711349 320.25063133 C36.13503864 320.26968221 25.55297077 320.28391494 14.97088206 320.2922433 C2.7450109 320.30202371 -9.48067959 320.3283647 -21.70648706 320.36874419 C-31.15028584 320.39886809 -40.59403272 320.41370853 -50.03787863 320.41702431 C-55.68142496 320.41937857 -61.32477825 320.42838814 -66.96827316 320.45348549 C-72.27555948 320.47670675 -77.58252483 320.4810234 -82.88984871 320.47072411 C-84.83895623 320.47022723 -86.78807923 320.47659227 -88.73713875 320.49028015 C-91.3958969 320.5079093 -94.05349186 320.5009376 -96.71224976 320.48774719 C-97.87212766 320.50420106 -97.87212766 320.50420106 -99.05543745 320.52098733 C-102.75194014 320.47663923 -104.81739679 320.11772944 -107.95548439 318.0945158 C-112.28749825 313.65655923 -111.25964136 308.45800019 -111.3125 302.5625 C-111.34150391 301.51900391 -111.37050781 300.47550781 -111.40039062 299.40039062 C-111.49354071 287.85694492 -108.16231544 278.30358628 -100 270 C-87.02272963 258.46210997 -72.44072315 258.39376145 -56 259 C-56.04833984 257.18822266 -56.04833984 257.18822266 -56.09765625 255.33984375 C-56.08312383 245.90415381 -51.58394904 237.58394904 -45 231 C-42.11647342 228.77766422 -39.15034141 226.82162599 -36 225 C-36.144375 224.13375 -36.28875 223.2675 -36.4375 222.375 C-36.7159375 220.704375 -36.7159375 220.704375 -37 219 C-37.17015625 218.15308594 -37.3403125 217.30617188 -37.515625 216.43359375 C-39.7558908 200.5529999 -37.80872348 185.3321279 -32.734375 170.234375 C-32.49203125 169.16703125 -32.2496875 168.0996875 -32 167 C-33.91383777 163.87935437 -33.91383777 163.87935437 -35.55078125 161.9375 C-40.53742798 155.27071623 -41.62158164 148.11509366 -41 140 C-41.96679688 140.03480469 -42.93359375 140.06960937 -43.9296875 140.10546875 C-57.25151745 140.38245729 -68.02831616 138.16195063 -78.23046875 128.99609375 C-87.73084042 119.03228931 -90.16605545 108.28347971 -90.3125 94.9375 C-90.34150391 94.05255859 -90.37050781 93.16761719 -90.40039062 92.25585938 C-90.44167623 88.02249698 -90.38382408 85.64079799 -88.16796875 81.94140625 C-84.99039499 79.09590327 -82.44737954 78.87547619 -78.3449707 78.88647461 C-77.40422195 78.88655014 -76.46347321 78.88662567 -75.49421692 78.88670349 C-74.48163315 78.89186478 -73.46904938 78.89702606 -72.42578125 78.90234375 C-71.38681198 78.9037587 -70.34784271 78.90517365 -69.27738953 78.90663147 C-65.95573052 78.91223344 -62.63413867 78.92478628 -59.3125 78.9375 C-57.06184993 78.94251475 -54.81119881 78.9470777 -52.56054688 78.95117188 C-47.04034163 78.96220351 -41.52017561 78.97894357 -36 79 C-36.28077393 78.28859863 -36.56154785 77.57719727 -36.85083008 76.84423828 C-41.63072128 64.31799062 -41.37580884 54.34498453 -36.046875 42.20336914 C-30.71414689 30.7628375 -15.11207022 -1.9959338 0 0 Z " fill="#FFB35A" transform="translate(250,83)"/>
<path d="M0 0 C1.23785751 -0.0071553 2.47571503 -0.01431061 3.75108337 -0.02168274 C5.12538122 -0.02452298 6.49967933 -0.02723472 7.87397766 -0.02983093 C9.31955122 -0.03609665 10.76512317 -0.04274355 12.21069336 -0.04974365 C16.96082947 -0.07077637 21.71096587 -0.0811464 26.46113586 -0.09111023 C28.09758331 -0.0951583 29.73403058 -0.09927524 31.37047768 -0.10346031 C39.06022668 -0.12251152 46.7499661 -0.13674179 54.43973416 -0.14507228 C63.30930626 -0.15484 72.17862849 -0.18114751 81.04811257 -0.22157317 C87.90769144 -0.25176234 94.7671988 -0.26654387 101.6268428 -0.26985329 C105.72176661 -0.27220091 109.81642346 -0.28112333 113.91127586 -0.30631447 C117.7666544 -0.32964895 121.62159124 -0.33380709 125.47702217 -0.32355309 C126.88789212 -0.32305889 128.2987842 -0.3293451 129.7095871 -0.34310913 C138.61332446 -0.42507718 145.07973613 -0.07613066 152.09785461 5.85810852 C156.77211526 11.61312308 158.07441711 15.53974797 158.07441711 23.14717102 C98.67441711 23.14717102 39.27441711 23.14717102 -21.92558289 23.14717102 C-20.95842938 13.47563596 -20.4117504 9.69699744 -13.30058289 3.79951477 C-8.85632981 0.69964825 -5.31429636 0.02106247 0 0 Z " fill="#FFFDFC" transform="translate(178.9255828857422,360.8528289794922)"/>
<path d="M0 0 C44.88 0 89.76 0 136 0 C136 7.36943152 135.43603976 11.25164745 130.5625 16.75 C125.52880461 21.1698301 122.35572844 23.10424855 115.59333801 23.15390015 C114.71735962 23.16250061 113.84138123 23.17110107 112.93885803 23.17996216 C111.98555099 23.18422211 111.03224396 23.18848206 110.05004883 23.19287109 C108.53467026 23.20513733 108.53467026 23.20513733 106.98867798 23.21765137 C103.64480171 23.24246648 100.30096781 23.25901203 96.95703125 23.2734375 C95.81351385 23.27876118 94.66999645 23.28408485 93.49182701 23.28956985 C87.4384872 23.31628527 81.38516789 23.33566487 75.33178711 23.35009766 C70.32769481 23.3634341 65.32401053 23.3912844 60.32006836 23.43212891 C54.2724038 23.48149015 48.22510922 23.50622317 42.17725182 23.51332474 C39.87642058 23.52002972 37.57559736 23.535232 35.27488136 23.55921555 C32.04846054 23.59092868 28.82346039 23.59089399 25.59692383 23.58349609 C24.182145 23.6081041 24.182145 23.6081041 22.73878479 23.63320923 C16.14001096 23.57153845 11.30838076 21.99325257 6 18 C0.50759256 12.14386271 0 7.92319057 0 0 Z " fill="#FFFEFD" transform="translate(179,181)"/>
<path d="M0 0 C3.93683688 1.31227896 5.08833053 3.69828919 7.1875 7.0625 C7.77035767 7.98784546 7.77035767 7.98784546 8.36499023 8.93188477 C11.28945802 13.66541161 14.00281102 18.49775954 16.5625 23.4375 C16.90885498 24.08662354 17.25520996 24.73574707 17.61206055 25.40454102 C20.14056672 30.44926336 20.92175791 34.7423587 19.37109375 40.22265625 C16.48715592 45.90606512 12.72563143 50.66259385 6.5625 52.875 C5.716875 52.91625 4.87125 52.9575 4 53 C2.081875 53.1546875 2.081875 53.1546875 0.125 53.3125 C-5.12337492 53.22354449 -8.82009378 51.15737489 -12.51171875 47.50390625 C-16.44342821 42.98638335 -17.38284087 39.37095116 -17.26171875 33.56640625 C-16.01373912 21.3287552 -7.40867404 9.49767721 0 0 Z " fill="#FFFDFC" transform="translate(246,109)"/>
<path d="M0 0 C1.05380859 0.21269531 1.05380859 0.21269531 2.12890625 0.4296875 C5.45618494 1.09061633 8.54632817 1.13236411 11.9375 1.125 C13.71447266 1.12886719 13.71447266 1.12886719 15.52734375 1.1328125 C18.77535743 1.0085915 21.81203717 0.61325697 25 0 C27.73588921 8.21801908 28.43654743 15.6837609 28.3125 24.3125 C28.31572266 25.45267578 28.31894531 26.59285156 28.32226562 27.76757812 C28.2848827 33.58911947 27.89243779 37.32268662 26 43 C16.76 43 7.52 43 -2 43 C-3.66952902 36.32188392 -4.35206022 31.48052752 -4.3125 24.8125 C-4.31048584 23.89500977 -4.30847168 22.97751953 -4.30639648 22.03222656 C-4.04239812 4.04239812 -4.04239812 4.04239812 0 0 Z " fill="#FFFEFC" transform="translate(235,261)"/>
<path d="M0 0 C0.83491974 -0.01606293 1.66983948 -0.03212585 2.53005981 -0.04867554 C6.36524603 -0.09326626 10.20025917 -0.13422668 14.03564453 -0.15722656 C16.05301485 -0.17374115 18.07032775 -0.20097135 20.08740234 -0.23925781 C23.00372523 -0.29430987 25.9186751 -0.31594763 28.83544922 -0.33056641 C29.72845734 -0.35323578 30.62146545 -0.37590515 31.54153442 -0.39926147 C37.88752791 -0.37807897 42.02919966 1.15785996 46.95263672 5.19287109 C51.65867573 10.38158078 51.95263672 11.74382908 51.95263672 19.19287109 C29.51263672 19.19287109 7.07263672 19.19287109 -16.04736328 19.19287109 C-16.04736328 11.03497636 -16.04736328 11.03497636 -12.04736328 6.19287109 C-8.24740285 2.59647997 -5.3206521 0.09305585 0 0 Z " fill="#FFFEFD" transform="translate(229.04736328125,322.80712890625)"/>
<path d="M0 0 C12.54 0 25.08 0 38 0 C38 8.37896273 37.38842063 11.12696766 32 17 C27.18500255 20.91284107 21.84804906 21.75733461 15.75 21.51171875 C10.24286706 20.48695396 6.17379898 17.52043179 2.5546875 13.32421875 C-0.5674553 8.57550505 0 6.11631409 0 0 Z " fill="#FFFDFC" transform="translate(228,223)"/>
</svg>
